<svg xmlns="http://www.w3.org/2000/svg" viewBox="0 0 4994 4326" fill="#456999">
  <defs>
    <clipPath id="clip">
      <rect x="0" y="0" width="4994" height="4326" />
    </clipPath>
  </defs>

  <symbol id="icons">
    <!-- Rocket -->
    <g>
      <svg x="0" y ="0">
        <path d="M16.35,17.36l-5.57.43A5,5,0,0,0,7,20L.57,29.72A3.44,3.44,0,0,0,2.92,35L8,35.81a45.63,45.63,0,0,1,8.34-18.45Z" />
        <path d="M28.45,56.25l.79,5.1a3.43,3.43,0,0,0,5.3,2.34l9.71-6.42a4.94,4.94,0,0,0,2.23-3.78l.43-5.57a45.71,45.71,0,0,1-18.46,8.33Z" />
        <path d="M26.54,52.72a3.27,3.27,0,0,0,.53,0,37,37,0,0,0,7.64-2.16l-21-21a37.27,37.27,0,0,0-2.17,7.65,3.31,3.31,0,0,0,.93,2.86L24.21,51.75A3.3,3.3,0,0,0,26.54,52.72Z" />
        <path d="M59.14,28.49c5.13-9.91,5.32-20.38,5-25.3A3.29,3.29,0,0,0,61.07.08C60.27,0,59.33,0,58.26,0A49.77,49.77,0,0,0,35.77,5.12a51.24,51.24,0,0,0-20.34,20.8.8.8,0,0,1,.17.15L38.2,48.66l.15.18A51.1,51.1,0,0,0,59.14,28.49ZM37.37,13.59a9.42,9.42,0,0,1,13.31,0,9.4,9.4,0,0,1,0,13.31,9.42,9.42,0,0,1-16.07-6.66,9.33,9.33,0,0,1,2.76-6.65Z" />
        <path d="M40,24.24a5.65,5.65,0,1,0,0-8,5.64,5.64,0,0,0,0,8Z" />
        <path d="M1.92,53a1.87,1.87,0,0,0,1.33-.55L9.4,46.26A1.88,1.88,0,1,0,6.74,43.6L.59,49.75A1.88,1.88,0,0,0,1.92,53Z" />
        <path d="M15,49.23a1.89,1.89,0,0,0-2.66,0L.55,61.05a1.89,1.89,0,0,0,1.33,3.22,1.85,1.85,0,0,0,1.33-.56L15,51.9a1.88,1.88,0,0,0,0-2.67Z" />
        <path d="M18,54.87,11.86,61a1.89,1.89,0,0,0,1.33,3.22,1.91,1.91,0,0,0,1.33-.55l6.15-6.15A1.88,1.88,0,0,0,18,54.87Z" />
      </svg>

      <!-- Gamepad -->
      <svg x="144.60" y="13.2">
        <path d="M21.76,15.17H20.64a1.52,1.52,0,0,1-1.52-1.52V12.53a1.91,1.91,0,0,0-.4-1.12l-.08-.08a1.68,1.68,0,0,0-2.88,1.2v1.12a1.52,1.52,0,0,1-1.52,1.52H13.12a1.91,1.91,0,0,0-1.12.4l-.08.08a1.64,1.64,0,0,0,1.2,2.8h1.12A1.52,1.52,0,0,1,15.76,20v1.12a1.65,1.65,0,0,0,.48,1.21,1.74,1.74,0,0,0,2.4,0,1.65,1.65,0,0,0,.48-1.21v-1a1.52,1.52,0,0,1,1.52-1.52h1.12A1.67,1.67,0,0,0,23,18.05a1.74,1.74,0,0,0,0-2.4A1.67,1.67,0,0,0,21.76,15.17Z" />
        <path d="M64.23,29.19a60.17,60.17,0,0,0-1.76-11.61,44.52,44.52,0,0,0-3.6-9.76C53.27-2,47.18-.51,39.9,1.42a52.25,52.25,0,0,1-7.37,1.44h-.8a52.11,52.11,0,0,1-7.36-1.44C17.08-.43,11-2,5.4,7.9a40.78,40.78,0,0,0-3.6,9.76A59.44,59.44,0,0,0,0,29.27c-.16,4.08.24,7.05,1.13,9.13A6.06,6.06,0,0,0,5,42a7.82,7.82,0,0,0,5.12-.56c3.12-1.28,6.72-4,10.25-7.29,2.48-2.4,7.12-3.6,11.76-3.6s9.29,1.2,11.77,3.6c3.52,3.29,7.12,6,10.25,7.29a8.37,8.37,0,0,0,5.12.56,6,6,0,0,0,3.84-3.68C64,36.32,64.39,33.35,64.23,29.19Zm-39.46-9a4.27,4.27,0,0,1-2.88,1.36,4.86,4.86,0,0,1-1.36,2.88,4.73,4.73,0,0,1-3.29,1.36A4.53,4.53,0,0,1,14,24.39a4.27,4.27,0,0,1-1.36-2.88,4.46,4.46,0,0,1-3-1.36,4.75,4.75,0,0,1-1.36-3.29,4.53,4.53,0,0,1,1.36-3.28l.08-.08a4.77,4.77,0,0,1,2.88-1.28A4.65,4.65,0,0,1,14,9.34,4.72,4.72,0,0,1,17.24,8a4.54,4.54,0,0,1,3.29,1.36l.08.08a4.55,4.55,0,0,1,1.28,2.8,4.86,4.86,0,0,1,2.88,1.36,4.72,4.72,0,0,1,1.36,3.28A4.55,4.55,0,0,1,24.77,20.15Zm15.61-.48a2.81,2.81,0,1,1,2.8-2.81A2.8,2.8,0,0,1,40.38,19.67Zm5.68,5.68a2.8,2.8,0,1,1,2.8-2.8A2.8,2.8,0,0,1,46.06,25.35Zm0-11.37a2.8,2.8,0,1,1,2.8-2.8A2.8,2.8,0,0,1,46.06,14Zm5.68,5.69a2.81,2.81,0,1,1,2.81-2.81A2.81,2.81,0,0,1,51.74,19.67Z" />
      </svg>

      <!-- Paw -->
      <svg x="288.20" y="7">
        <path d="M47.52,32c-4.32-5.22-9.79-8.1-15.39-8.1S21.07,26.8,16.74,32c-3.88,4.69-6.2,10.61-6.2,15.82a7,7,0,0,0,2.3,5.73,8.61,8.61,0,0,0,5.71,1.68,44.13,44.13,0,0,0,7.57-1,37.41,37.41,0,0,1,6-.8,35.12,35.12,0,0,1,5.52.76c4.94.91,10.53,2,13.76-.73a7,7,0,0,0,2.32-5.69C53.73,42.63,51.41,36.71,47.52,32Z" />
        <path d="M48,3.67A7.64,7.64,0,0,0,41.75,0a7.67,7.67,0,0,0-6.22,3.67,14.24,14.24,0,0,0-2.25,7.92,14.28,14.28,0,0,0,2.25,7.93,7.67,7.67,0,0,0,6.22,3.67A7.64,7.64,0,0,0,48,19.52a14.2,14.2,0,0,0,2.26-7.93A14.17,14.17,0,0,0,48,3.67Z" />
        <path d="M28.73,3.67A7.65,7.65,0,0,0,22.52,0,7.65,7.65,0,0,0,16.3,3.67a14.24,14.24,0,0,0-2.25,7.92,14.28,14.28,0,0,0,2.25,7.93,7.65,7.65,0,0,0,6.22,3.67,7.65,7.65,0,0,0,6.21-3.67A14.2,14.2,0,0,0,31,11.59,14.17,14.17,0,0,0,28.73,3.67Z" />
        <path d="M63.89,21.87A6.46,6.46,0,0,0,60,17.43a6,6,0,0,0-4.71.27,9.69,9.69,0,0,0-4.82,5.69,10.5,10.5,0,0,0-.26,6.35,6.46,6.46,0,0,0,3.85,4.44,5.65,5.65,0,0,0,2,.36,6.4,6.4,0,0,0,2.73-.63,9.68,9.68,0,0,0,4.81-5.69h0A10.43,10.43,0,0,0,63.89,21.87Z" />
        <path d="M13.76,23.39A9.72,9.72,0,0,0,8.94,17.7a6,6,0,0,0-4.72-.27A6.48,6.48,0,0,0,.37,21.87a10.51,10.51,0,0,0,.27,6.35h0a9.64,9.64,0,0,0,4.81,5.69,6.36,6.36,0,0,0,2.72.63,5.66,5.66,0,0,0,2-.36A6.48,6.48,0,0,0,14,29.74,10.58,10.58,0,0,0,13.76,23.39Z" />
      </svg>

      <!-- Coffee -->
      <svg x="431.92" y="10.12">
        <path d="M37,12.56a5.47,5.47,0,0,1,0-8.92c.83-.76,1.17-1.1,1.17-1.9a1.74,1.74,0,0,1,3.47,0,5.67,5.67,0,0,1-2.3,4.46c-.82.76-1.17,1.1-1.17,1.9s.35,1.14,1.17,1.91a5.47,5.47,0,0,1,0,8.92c-.82.76-1.17,1.1-1.17,1.9a1.74,1.74,0,0,1-3.47,0A5.67,5.67,0,0,1,37,16.37c.83-.77,1.17-1.11,1.17-1.91s-.34-1.13-1.17-1.9Z" />
        <path d="M26.59,12.56a5.47,5.47,0,0,1,0-8.92c.83-.76,1.17-1.1,1.17-1.9a1.74,1.74,0,0,1,3.47,0,5.67,5.67,0,0,1-2.3,4.46c-.82.76-1.17,1.1-1.17,1.9s.35,1.14,1.17,1.91a5.47,5.47,0,0,1,0,8.92c-.82.76-1.17,1.1-1.17,1.9a1.74,1.74,0,0,1-3.47,0,5.67,5.67,0,0,1,2.3-4.46c.83-.77,1.17-1.11,1.17-1.91s-.34-1.13-1.17-1.9Z" />
        <path d="M18.52,10a5.48,5.48,0,0,1,0,8.93c-.82.76-1.17,1.1-1.17,1.9a1.74,1.74,0,0,1-3.47,0,5.67,5.67,0,0,1,2.3-4.46c.83-.77,1.17-1.11,1.17-1.91s-.35-1.14-1.17-1.91a5.47,5.47,0,0,1,0-8.92c.83-.76,1.17-1.1,1.17-1.89a1.74,1.74,0,1,1,3.47,0,5.65,5.65,0,0,1-2.3,4.45C17.7,7,17.35,7.3,17.35,8.1S17.7,9.24,18.52,10Z" />
        <path d="M61.88,23.13a9.93,9.93,0,0,0-8-1.49c0-.9,0-1.74,0-2.5h-.05v-.05c0-2.1-1.07-5.17-6.13-7.86a1.73,1.73,0,0,0-2.57,1.59A1.71,1.71,0,0,0,46,14.29c2.76,1.47,4.29,3.18,4.29,4.8,0,4.11-9.62,8.68-23.43,8.68A44.26,44.26,0,0,1,8.68,24.39l-.21-.1c-3.13-1.52-4.94-3.35-5-5.11v-.12c0-2.12,2.67-4.37,7.09-6A1.73,1.73,0,1,0,9.35,9.77C3.32,12.05,0,15.36,0,19.09c0,.05,0,.09,0,.13-.13,5.92.72,16.81,7.76,24,4.59,4.7,11,7.09,19.16,7.09s14.56-2.39,19.15-7.09a22.27,22.27,0,0,0,2.53-3.12,10.94,10.94,0,0,1,2.58-.94l1.24-.27c4-.87,10.77-2.32,11.67-9A7,7,0,0,0,61.88,23.13ZM43.6,40.82c-3.91,4-9.53,6-16.67,6s-12.76-2-16.68-6A26.26,26.26,0,0,1,3.77,25.45h0c4.61,3.52,13,5.79,23.12,5.79S45.5,29,50.09,25.39A26.29,26.29,0,0,1,43.6,40.82ZM60.66,29.45c-.54,3.95-4.21,5-9,6.07l-.68.15a36.23,36.23,0,0,0,2.57-10.44h0a7.29,7.29,0,0,1,6.08.59A3.77,3.77,0,0,1,60.66,29.45Z" />
      </svg>

      <!-- Dog -->
      <svg x="575.58" y="0">
        <path d="M60.85,14.8l-6.56-2.65a5.56,5.56,0,0,0-4.08-4.34l-.36-4.09a1.48,1.48,0,0,0-1-1.27,1.51,1.51,0,0,0-1.57.41L45.58,4.75,44.52,1.07A1.45,1.45,0,0,0,43.16,0a1.48,1.48,0,0,0-1.44,1L32.64,26A26.37,26.37,0,0,0,16.88,37.61a21.86,21.86,0,0,0-2.8,16.82,13.26,13.26,0,0,0,4,6.89H16.75A15.11,15.11,0,0,1,2.8,52.76a1.45,1.45,0,0,0-2-.69,1.47,1.47,0,0,0-.7,2A18.06,18.06,0,0,0,16.39,64.27H44.51A1.47,1.47,0,0,0,46,62.79c0-4-3.16-5.77-5.95-6.43a11.19,11.19,0,0,0,1.27-6.25l.38,0L50.51,63.6a1.49,1.49,0,0,0,1.23.67H57.1A1.48,1.48,0,0,0,58.35,62c-.06-.09-5.59-8.88-8.57-13.8V23.47a12.57,12.57,0,0,0,1.37.07A11.71,11.71,0,0,0,61.6,16.86l.07-.14A1.47,1.47,0,0,0,60.85,14.8Z" />
      </svg>

      <!-- Code -->
      <svg x="0" y="153.47">
        <path d="M8.62,25l8.19-8.18a3.57,3.57,0,0,0-5-5L1.05,22.47a3.56,3.56,0,0,0,0,5.05L11.76,38.23a3.57,3.57,0,1,0,5-5Z" />
        <path d="M63.22,22.47,52.51,11.76a3.57,3.57,0,0,0-5,5L55.65,25l-8.19,8.19a3.57,3.57,0,0,0,5,5L63.22,27.52A3.58,3.58,0,0,0,63.22,22.47Z" />
        <path d="M40.4.18a3.57,3.57,0,0,0-4.51,2.26L21.6,45.28a3.58,3.58,0,0,0,2.26,4.52A3.75,3.75,0,0,0,25,50a3.57,3.57,0,0,0,3.39-2.44L42.66,4.7A3.58,3.58,0,0,0,40.4.18Z" />
      </svg>

      <!-- Cat -->
      <svg x="144.56" y="142.52">
        <path d="M3.44,60.94c0-2.49,3.14-5.54,6.81-5.54s6.81,3.05,6.81,5.54c0,1.61-1.53,2.54-3.51,3a2.91,2.91,0,0,0,.1-.77V60.94a1.14,1.14,0,0,0-2.27,0v2.22a1.14,1.14,0,0,1-2.27,0V60.94a1.14,1.14,0,0,0-2.27,0v2.22a3.41,3.41,0,0,0,.11.77C5,63.48,3.44,62.55,3.44,60.94Z" />
        <path d="M57.9,60.94c0,1.61-1.53,2.54-3.51,3a3.41,3.41,0,0,0,.11-.77V60.94a1.14,1.14,0,0,0-2.27,0v2.22a1.14,1.14,0,0,1-2.27,0V60.94a1.14,1.14,0,0,0-2.27,0v2.22a2.91,2.91,0,0,0,.1.77c-2-.45-3.51-1.38-3.51-3,0-2.49,3.15-5.54,6.81-5.54S57.9,58.45,57.9,60.94Z" />
        <path d="M27.93,14.54a11.88,11.88,0,0,0-.39-2.74,9.85,9.85,0,0,1,4-10.38C33.24.33,37.8-1.7,44,2.75a3.28,3.28,0,0,1,1.4,3.05,3.33,3.33,0,0,1-2,2.69A3.46,3.46,0,0,1,40,8.12C39.08,7.46,36.77,6,35.35,7a3.34,3.34,0,0,0-1.21,3.28,20.07,20.07,0,0,1,.58,4.48l0,2.25c5,.84,9.29,3.2,11.8,6.53-1.52.84-3.19,1.88-5,3.15a27.06,27.06,0,0,0-21.64,0c-1.86-1.27-3.55-2.31-5.07-3.15,2.73-3.61,7.59-6.08,13.1-6.71Z" />
        <path d="M32.37,47.64H29c-.39,0-.56.19-.57.24l1.74,1.8a.93.93,0,0,0,1.06,0l1.7-1.78C32.93,47.83,32.76,47.64,32.37,47.64Z" />
        <path d="M60.82,50a11.59,11.59,0,0,0-2.9-1.28h0l-2.29-.55h0a17,17,0,0,0-.78-4.41h0l2.25-.37a24.65,24.65,0,0,1,3.09-.19,1.11,1.11,0,1,0,0-2.22c-1.29,0-3.87.27-3.87.27L54,41.67a21.36,21.36,0,0,0-1.6-3,1.11,1.11,0,0,1-.12-.94c2.09-6.23,2.82-12.61,1.63-14.22a.58.58,0,0,0-.53-.27c-2,0-6,2-11.11,5.56a1.18,1.18,0,0,1-1.15.1,24.72,24.72,0,0,0-20.9,0,1.16,1.16,0,0,1-1.14-.1,57.67,57.67,0,0,0-6.41-3.94l-.11-.05,0,0A11.13,11.13,0,0,0,8,23.26a.57.57,0,0,0-.53.28c-1.19,1.59-.46,8,1.62,14.17a1.09,1.09,0,0,1-.12.93,23.24,23.24,0,0,0-1.63,3L5,41.26S2.44,41,1.14,41a1.11,1.11,0,1,0,0,2.22,24.41,24.41,0,0,1,3.09.19l2.26.37h0a17,17,0,0,0-.78,4.41h0l-2.29.55h0A11.75,11.75,0,0,0,.51,50,1.12,1.12,0,0,0,0,51,1.13,1.13,0,0,0,.63,52a1.18,1.18,0,0,0,1.14-.08A8.26,8.26,0,0,1,3.6,51l2.22-.59a12,12,0,0,0,1,3.41,9.35,9.35,0,0,1,3.47-.67c5.11,0,9.07,4.17,9.07,7.76a4.2,4.2,0,0,1-.39,1.84,43.9,43.9,0,0,0,11.74,1.48,43.9,43.9,0,0,0,11.74-1.48A4.2,4.2,0,0,1,42,60.94c0-3.59,4-7.76,9.07-7.76a9.35,9.35,0,0,1,3.47.67,12,12,0,0,0,1-3.41l2.22.59a8.19,8.19,0,0,1,1.82.86A1.19,1.19,0,0,0,60.7,52,1.1,1.1,0,0,0,60.82,50ZM21.11,41.38c-1.15-.6-2.76-.51-4.78.26A1.14,1.14,0,0,1,14.86,41a1.1,1.1,0,0,1,.65-1.43c2.68-1,4.94-1.07,6.7-.14A5.67,5.67,0,0,1,25,43a1.1,1.1,0,0,1-.87,1.29,1.14,1.14,0,0,1-1.35-.82A3.39,3.39,0,0,0,21.11,41.38Zm17.5,14a4.41,4.41,0,0,1-2.93,4.15,4.59,4.59,0,0,1-5-1.25,4.59,4.59,0,0,1-5,1.25,4.41,4.41,0,0,1-2.93-4.15V54.29a1.14,1.14,0,0,1,2.27,0V55.4a2.27,2.27,0,0,0,4.54,0V51.87a3,3,0,0,1-1.06-.68l-1.7-1.77A2.2,2.2,0,0,1,26.32,47,2.86,2.86,0,0,1,29,45.42h3.4A2.86,2.86,0,0,1,35,47a2.2,2.2,0,0,1-.46,2.43l-1.7,1.77a3,3,0,0,1-1.06.68V55.4a2.27,2.27,0,0,0,4.54,0V54.29a1.14,1.14,0,0,1,2.27,0ZM45.34,41a1.14,1.14,0,0,1-1.47.63c-2-.77-3.65-.86-4.8-.25a3.42,3.42,0,0,0-1.62,2,1.1,1.1,0,0,1-.49.7,1.15,1.15,0,0,1-.85.15,1.1,1.1,0,0,1-.72-.48,1.12,1.12,0,0,1-.16-.83A5.75,5.75,0,0,1,38,39.43c1.77-.92,4-.88,6.71.15A1.09,1.09,0,0,1,45.34,41Z" />
      </svg>

      <!-- Robot -->
      <svg x="288.20" y="143.60">
        <path d="M49.08,13.31A1.88,1.88,0,0,0,51,15.19h3.77a1.89,1.89,0,0,0,0-3.77H51A1.88,1.88,0,0,0,49.08,13.31Z" />
        <path d="M9.54,15.19H13.3a1.89,1.89,0,1,0,0-3.77H9.54a1.89,1.89,0,0,0,0,3.77Z" />
        <path d="M49.38,5.4l3.26-1.89A1.88,1.88,0,1,0,50.76.25L47.5,2.13A1.89,1.89,0,0,0,49.38,5.4Z" />
        <path d="M14.89,21.21,11.62,23.1a1.88,1.88,0,0,0,1.89,3.26l3.26-1.88a1.89,1.89,0,0,0-1.88-3.27Z" />
        <path d="M47.5,24.48l3.26,1.88a1.88,1.88,0,0,0,1.88-3.26l-3.26-1.89a1.89,1.89,0,0,0-1.88,3.27Z" />
        <path d="M11.62,3.51,14.89,5.4a1.89,1.89,0,0,0,1.88-3.27L13.51.25a1.88,1.88,0,1,0-1.89,3.26Z" />
        <path d="M60.34,42A9.55,9.55,0,0,0,51,34.14H47.15a9.38,9.38,0,0,0-7.49-3.76H24.6a9.37,9.37,0,0,0-7.48,3.76H13.31A9.55,9.55,0,0,0,3.93,42,5.63,5.63,0,0,0,5.65,53a1.89,1.89,0,0,0,0-3.77,1.88,1.88,0,1,1,1.88-1.88,1.89,1.89,0,0,0,3.77,0,5.65,5.65,0,0,0-3.55-5.23,5.79,5.79,0,0,1,5.56-4.18h2.07a9,9,0,0,0-.19,1.88V49.2H49.08V39.79a9.75,9.75,0,0,0-.19-1.88H51a5.8,5.8,0,0,1,5.56,4.18A5.63,5.63,0,0,0,53,47.32a1.88,1.88,0,1,0,3.76,0,1.89,1.89,0,1,1,1.89,1.88,1.89,1.89,0,1,0,0,3.77,5.63,5.63,0,0,0,1.72-11Zm-33.86-.3a1.88,1.88,0,1,1-3.76,0V37.91a1.88,1.88,0,1,1,3.76,0Zm7.54,0a1.89,1.89,0,1,1-3.77,0V37.91a1.89,1.89,0,1,1,3.77,0Zm7.53,0a1.89,1.89,0,1,1-3.77,0V37.91a1.89,1.89,0,1,1,3.77,0Z" />
        <path d="M25.3,26.61H39c1.31-2.81,3.24-4.58,4.08-5.78a13.37,13.37,0,0,0,2.27-7.52,13.19,13.19,0,1,0-26.37,0,13.34,13.34,0,0,0,2.27,7.48C22.05,22.05,24,23.76,25.3,26.61Zm3.07-15.19a1.88,1.88,0,0,1,1.88,1.89,1.89,1.89,0,0,0,3.77,0,1.88,1.88,0,1,1,3.76,0,5.65,5.65,0,0,1-11.3,0A1.89,1.89,0,0,1,28.37,11.42Z" />
        <path d="M52.84,58.62A5.65,5.65,0,0,0,47.2,53H17.07a5.65,5.65,0,0,0,0,11.3H47.2a5.65,5.65,0,0,0,5.64-5.65Zm-26,1.88H22.37a5.6,5.6,0,0,0,.35-1.88,5.66,5.66,0,0,0-.35-1.89h4.46a5.66,5.66,0,0,0-.35,1.89A5.6,5.6,0,0,0,26.83,60.5Zm15.06,0H37.43a5.36,5.36,0,0,0,.35-1.88,5.42,5.42,0,0,0-.35-1.89h4.46a5.65,5.65,0,0,0-.34,1.89A5.59,5.59,0,0,0,41.89,60.5Z" />
      </svg>

      <!-- Cube -->
      <svg x="432.80" y ="143.60">
        <path d="M0,45.8a4.8,4.8,0,0,0,7.34,4.08l16.33,9.44v.14a4.81,4.81,0,1,0,9.61,0v-.15l16.33-9.43a4.74,4.74,0,0,0,2.53.73,4.81,4.81,0,0,0,2.27-9V22.71a4.82,4.82,0,0,0,2.53-4.24h0a4.81,4.81,0,0,0-4.8-4.81,4.73,4.73,0,0,0-2.53.72L33.28,5V4.81a4.81,4.81,0,1,0-9.61,0V5L7.33,14.38a4.72,4.72,0,0,0-2.52-.72A4.82,4.82,0,0,0,0,18.47H0a4.82,4.82,0,0,0,2.53,4.24V41.57A4.79,4.79,0,0,0,0,45.8ZM49.61,22.56l.25.15V41.57a4.79,4.79,0,0,0-2.53,4.23v.14L31,55.37l-.25-.14V36.37a4.82,4.82,0,0,0,2.53-4.24V32ZM25.89,8.93a4.83,4.83,0,0,0,5.17,0l16.27,9.4v.14h0v.14L31,28a4.84,4.84,0,0,0-2.53-.71,4.78,4.78,0,0,0-2.53.72L9.61,18.61v-.14h0v-.15ZM7.08,22.71l.26-.15L23.67,32v.14a4.82,4.82,0,0,0,2.53,4.24V55.23a1.74,1.74,0,0,0-.26.15L9.61,45.94V45.8a4.79,4.79,0,0,0-2.53-4.23Z" />
      </svg>

      <!-- Laptop -->
      <svg x="576.74" y ="153.44">
        <path d="M58.31,33.32V2.38A2.39,2.39,0,0,0,55.93,0H8.33A2.39,2.39,0,0,0,6,2.38V33.32L0,40.46A3.57,3.57,0,0,0,3.57,44H60.7a3.57,3.57,0,0,0,3.57-3.57ZM36.9,42.84H27.37a.59.59,0,0,1-.59-.59.6.6,0,0,1,.59-.6H36.9a.6.6,0,0,1,0,1.19ZM22.32,40.46l1.82-2.18h16l1.82,2.18ZM55,29.11a2.08,2.08,0,0,1-2.07,2.08H11.38A2.09,2.09,0,0,1,9.3,29.11V4.21a2.08,2.08,0,0,1,2.08-2.07H52.89A2.07,2.07,0,0,1,55,4.21Z" />
      </svg>

      <!-- Robotarm -->
      <svg x="7.2" y ="287.66">
        <path d="M48.87,54.6a14.38,14.38,0,0,0-28.75,0v5.63H8.87V64H52.62V60.23H48.87Zm-14.37,0A2.5,2.5,0,1,1,37,52.1,2.5,2.5,0,0,1,34.5,54.6Z" />
        <path d="M52.7,18.81a6.92,6.92,0,0,0-2-2.51L32.78,1.6h0a6.88,6.88,0,0,0-9.53.69l-21,16.44h0A5.64,5.64,0,0,0,0,23.23v9.38H3.75v3.75H7.5V32.61h3.75V23.23A5.56,5.56,0,0,0,11,21.49L25,13,38.34,23.94,33.77,36.5l.73,0a18,18,0,0,1,12.19,4.73l6.24-17.14A6.86,6.86,0,0,0,52.7,18.81ZM30.77,8.88a3.11,3.11,0,0,1-4.4.39h0A3.13,3.13,0,0,1,28.1,3.76h.28a3.08,3.08,0,0,1,2,.73,3.11,3.11,0,0,1,.39,4.4ZM49.4,22.79a3.11,3.11,0,1,1-2.93-4.2,3.06,3.06,0,0,1,1.07.19,3.13,3.13,0,0,1,1.86,4Z" />
      </svg>

      <!-- Power -->
      <svg x="144.64" y="287.18">
        <path d="M6.85,32.14a21.65,21.65,0,0,1,13.55-20l4-8.13a28.47,28.47,0,0,0-3.65,55.6l.78-6.93A21.65,21.65,0,0,1,6.85,32.14Z" />
        <path d="M56.93,32.14A28.52,28.52,0,0,0,36.15,4.73l-.8,6.92a21.62,21.62,0,0,1,1.32,40.49l-4.16,8.18A28.5,28.5,0,0,0,56.93,32.14Z" />
        <path d="M44.76,28.69a1.58,1.58,0,0,0-1.53-2.33h-13L33,2A1.8,1.8,0,0,0,31.8.07,1.73,1.73,0,0,0,31.3,0a1.7,1.7,0,0,0-1.52,1L12.17,36.34A1.86,1.86,0,0,0,13.7,39H26.55L23.92,62.45a1.6,1.6,0,0,0,1.21,1.75,1.66,1.66,0,0,0,.49.07,1.72,1.72,0,0,0,1.53-.94Z" />
      </svg>

      <!-- Smartphone -->
      <svg x="302.60" y="287.10">
        <path d="M28.54,0H6.83A6.83,6.83,0,0,0,0,6.7V57.57a6.76,6.76,0,0,0,6.76,6.7l21.75,0a6.71,6.71,0,0,0,6.71-6.69l0-50.85A6.7,6.7,0,0,0,28.54,0Zm-14,4h6.3a1,1,0,0,1,0,2h-6.3a1,1,0,1,1,0-2Zm-3.79.32a1,1,0,0,1,1.42,0,1,1,0,0,1,.3.71,1,1,0,0,1-1,1,1,1,0,0,1-1-1A1,1,0,0,1,10.76,4.34Zm6.73,57.94a3,3,0,1,1,3-3A3,3,0,0,1,17.49,62.28Zm14.64-8.06H3.51V9.54H32.13V54.22Z" />
      </svg>

      <!-- Console -->
      <svg x="431.80" y="298.20">
        <path d="M27.29,17.21,8.38,1.21A5.09,5.09,0,1,0,1.8,9L16.12,21.1,1.8,33.22A5.09,5.09,0,0,0,8.38,41L27.29,25A5.1,5.1,0,0,0,27.29,17.21Z" />
        <path d="M59.17,32H36.26a5.1,5.1,0,0,0,0,10.19H59.17a5.1,5.1,0,1,0,0-10.19Z" />
      </svg>

      <!-- Paperplane -->
      <svg x="576.40" y="288.20">
        <path d="M61.81.09h-.09L1.47,22.7A1.87,1.87,0,0,0,.26,24.24,1.9,1.9,0,0,0,1.09,26l13.21,8.8L19.13,55a.94.94,0,0,0,.06.15,1.87,1.87,0,0,0,3.1.75l9.45-9.46,14.53,9.69a1.89,1.89,0,0,0,2.86-1L64.19,2.38A1.87,1.87,0,0,0,61.81.09Zm-38.1,38.3a1.93,1.93,0,0,0-.52,1v0L21.09,47l-3-12.51,29.16-20Z" />
        <path d="M12.63,51.62a1.89,1.89,0,0,0-2.66,0L.55,61A1.88,1.88,0,1,0,3.21,63.7l9.42-9.42A1.89,1.89,0,0,0,12.63,51.62Z" />
        <path d="M12.63,40.32a1.89,1.89,0,0,0-2.66,0L.55,49.74A1.88,1.88,0,0,0,3.21,52.4L12.63,43A1.9,1.9,0,0,0,12.63,40.32Z" />
      </svg>  
    </g>
  </symbol>

  <g clip-path="url(#clip)">
    <g transform="translate(0 30) rotate(-30 0 0)">
      <use href="#icons" x="-2163" y="2491.08"/>
      <use href="#icons" x="-2163" y="2913.26"/>
      <use href="#icons" x="-2163" y="3329.44"/>
      <use href="#icons" x="-2163" y="3745.62"/>
      <use href="#icons" x="-2163" y="4161.8"/>
      <use href="#icons" x="-2163" y="4577.98"/>

      <use href="#icons" x="-1442" y="1248.54"/>
      <use href="#icons" x="-1442" y="1664.72"/>
      <use href="#icons" x="-1442" y="2080.9"/>
      <use href="#icons" x="-1442" y="2491.08"/>
      <use href="#icons" x="-1442" y="2913.26"/>
      <use href="#icons" x="-1442" y="3329.44"/>
      <use href="#icons" x="-1442" y="3745.62"/>
      <use href="#icons" x="-1442" y="4161.8"/>
      <use href="#icons" x="-1442" y="4577.98"/>
      <use href="#icons" x="-1442" y="4994.16"/>

      <use href="#icons" x="-721" y="0"/>
      <use href="#icons" x="-721" y="416.18"/>
      <use href="#icons" x="-721" y="832.36"/>
      <use href="#icons" x="-721" y="1248.54"/>
      <use href="#icons" x="-721" y="1664.72"/>
      <use href="#icons" x="-721" y="2080.9"/>
      <use href="#icons" x="-721" y="2491.08"/>
      <use href="#icons" x="-721" y="2913.26"/>
      <use href="#icons" x="-721" y="3329.44"/>
      <use href="#icons" x="-721" y="3745.62"/>
      <use href="#icons" x="-721" y="4161.8"/>
      <use href="#icons" x="-721" y="4577.98"/>
      <use href="#icons" x="-721" y="4994.16"/>
      <use href="#icons" x="-721" y="5410.34"/>
    
      <use href="#icons" x="0" y="0"/>
      <use href="#icons" x="0" y="416.18"/>
      <use href="#icons" x="0" y="832.36"/>
      <use href="#icons" x="0" y="1248.54"/>
      <use href="#icons" x="0" y="1664.72"/>
      <use href="#icons" x="0" y="2080.9"/>
      <use href="#icons" x="0" y="2491.08"/>
      <use href="#icons" x="0" y="2913.26"/>
      <use href="#icons" x="0" y="3329.44"/>
      <use href="#icons" x="0" y="3745.62"/>
      <use href="#icons" x="0" y="4161.8"/>
      <use href="#icons" x="0" y="4577.98"/>
      <use href="#icons" x="0" y="4994.16"/>
      <use href="#icons" x="0" y="5410.34"/>
      <use href="#icons" x="0" y="5826.52"/>

      <use href="#icons" x="721" y="0"/>
      <use href="#icons" x="721" y="416.18"/>
      <use href="#icons" x="721" y="832.36"/>
      <use href="#icons" x="721" y="1248.54"/>
      <use href="#icons" x="721" y="1664.72"/>
      <use href="#icons" x="721" y="2080.9"/>
      <use href="#icons" x="721" y="2491.08"/>
      <use href="#icons" x="721" y="2913.26"/>
      <use href="#icons" x="721" y="3329.44"/>
      <use href="#icons" x="721" y="3745.62"/>
      <use href="#icons" x="721" y="4161.8"/>
      <use href="#icons" x="721" y="4577.98"/>
      <use href="#icons" x="721" y="4994.16"/>
      <use href="#icons" x="721" y="5410.34"/>
      <use href="#icons" x="721" y="5826.52"/>

      <use href="#icons" x="1442" y="416.18"/>
      <use href="#icons" x="1442" y="832.36"/>
      <use href="#icons" x="1442" y="1248.54"/>
      <use href="#icons" x="1442" y="1664.72"/>
      <use href="#icons" x="1442" y="2080.9"/>
      <use href="#icons" x="1442" y="2491.08"/>
      <use href="#icons" x="1442" y="2913.26"/>
      <use href="#icons" x="1442" y="3329.44"/>
      <use href="#icons" x="1442" y="3745.62"/>
      <use href="#icons" x="1442" y="4161.8"/>
      <use href="#icons" x="1442" y="4577.98"/>
      <use href="#icons" x="1442" y="4994.16"/>
      <use href="#icons" x="1442" y="5410.34"/>
      <use href="#icons" x="1442" y="5826.52"/>
      <use href="#icons" x="1442" y="6242.7"/>

      <use href="#icons" x="2163" y="832.36"/>
      <use href="#icons" x="2163" y="1248.54"/>
      <use href="#icons" x="2163" y="1664.72"/>
      <use href="#icons" x="2163" y="2080.9"/>
      <use href="#icons" x="2163" y="2491.08"/>
      <use href="#icons" x="2163" y="2913.26"/>
      <use href="#icons" x="2163" y="3329.44"/>
      <use href="#icons" x="2163" y="3745.62"/>
      <use href="#icons" x="2163" y="4161.8"/>
      <use href="#icons" x="2163" y="4577.98"/>
      <use href="#icons" x="2163" y="4994.16"/>
      <use href="#icons" x="2163" y="5410.34"/>
      <use href="#icons" x="2163" y="5826.52"/>
      <use href="#icons" x="2163" y="6242.7"/>

      <use href="#icons" x="2884" y="1248.54"/>
      <use href="#icons" x="2884" y="1664.72"/>
      <use href="#icons" x="2884" y="2080.9"/>
      <use href="#icons" x="2884" y="2491.08"/>
      <use href="#icons" x="2884" y="2913.26"/>
      <use href="#icons" x="2884" y="3329.44"/>
      <use href="#icons" x="2884" y="3745.62"/>
      <use href="#icons" x="2884" y="4161.8"/>
      <use href="#icons" x="2884" y="4577.98"/>
      <use href="#icons" x="2884" y="4994.16"/>

      <use href="#icons" x="3605" y="1664.72"/>
      <use href="#icons" x="3605" y="2080.9"/>
      <use href="#icons" x="3605" y="2491.08"/>
      <use href="#icons" x="3605" y="2913.26"/>
      <use href="#icons" x="3605" y="3329.44"/>
      <use href="#icons" x="3605" y="3745.62"/>

      <use href="#icons" x="4326" y="1664.72"/>
      <use href="#icons" x="4326" y="2080.9"/>
      <use href="#icons" x="4326" y="2497.08"/>
    </g>
  </g>
</svg>