<svg xmlns="http://www.w3.org/2000/svg" viewBox="0 0 225 245">
  <defs>
    <style>
      .cls-1 {
        fill: #fff;
      }
    </style>
  </defs>
  <title>Recurso 7</title>
  <g id="Capa_2" data-name="Capa 2">
    <g id="Capa_1-2" data-name="Capa 1">
      <path class="cls-1"
        d="M131,142.39c-1.23-1.12,0-41.65,0-41.65s-10.42-3.94-9.2-9.56c14.72-2.25,34.95,15.19,37.41,15.19s11-7.88,11-10.13c-23.92-12-56.1-11.27-56.1-11.27S81.92,84.26,58,96.24c0,2.25,8.59,10.13,11,10.13s22.69-17.44,37.4-15.19c1.23,5.62-9.19,9.56-9.19,9.56s1.22,40.53,0,41.65-68.68,2.25-67.45,3.38,167.42,1.09,168.61,0S132.18,143.52,131,142.39ZM115.42,112l-1.23,11.26L113,112l-11-7.88,12.26,6.76,11-6.76Z" />
      <path class="cls-1" d="M6.26,156.81v17.85H29.72V156.81h6.33v42.67H29.72v-20H6.26v20H0V156.81Z" />
      <path class="cls-1"
        d="M88.36,177.7c0,14.69-10.15,22.47-22.52,22.47C53,200.17,44,191.44,44,178.52c0-13.54,9.57-22.41,22.52-22.41C79.8,156.11,88.36,165,88.36,177.7Zm-37.63.7c0,9.11,5.61,17.28,15.47,17.28s15.54-8,15.54-17.73c0-8.48-5-17.34-15.47-17.34S50.73,169,50.73,178.4Z" />
      <path class="cls-1"
        d="M96.49,199.48V156.81h6.84l15.54,21.59a116.29,116.29,0,0,1,8.7,13.86l.15-.06a166,166,0,0,1-.72-17.54V156.81h5.9v42.67h-6.33l-15.4-21.65a133.1,133.1,0,0,1-9.07-14.25l-.21.07c.36,5.38.5,10.5.5,17.59v18.24Z" />
      <path class="cls-1"
        d="M185.28,177.7c0,14.69-10.14,22.47-22.52,22.47-12.81,0-21.8-8.73-21.8-21.65,0-13.54,9.57-22.41,22.52-22.41C176.72,156.11,185.28,165,185.28,177.7Zm-37.63.7c0,9.11,5.61,17.28,15.47,17.28s15.54-8,15.54-17.73c0-8.48-5-17.34-15.47-17.34S147.65,169,147.65,178.4Z" />
      <path class="cls-1"
        d="M193.41,157.38a73.89,73.89,0,0,1,12-.89c6.69,0,11,1.08,14,3.48a10.05,10.05,0,0,1,3.81,8.11c0,5.63-4,9.37-9.14,10.89v.19c3.75,1.13,6,4.17,7.13,8.6,1.58,6,2.73,10.07,3.74,11.72h-6.48c-.79-1.21-1.87-4.88-3.23-10.2-1.44-5.88-4-8.1-9.72-8.29h-5.9v18.49h-6.26Zm6.26,19.43h6.41c6.69,0,10.93-3.23,10.93-8.1,0-5.51-4.53-7.91-11.15-8a29.35,29.35,0,0,0-6.19.51Z" />
      <path class="cls-1"
        d="M26.94,243.43A24.92,24.92,0,0,1,17.56,245C7.54,245,0,239.26,0,228.76c0-10,7.54-16.8,18.56-16.8A20.93,20.93,0,0,1,27,213.38l-1.11,3.37a18.28,18.28,0,0,0-7.17-1.33c-8.33,0-13.87,4.8-13.87,13.2,0,7.83,5,12.87,13.66,12.87A20.32,20.32,0,0,0,26,240.16Z" />
      <path class="cls-1"
        d="M62,228.15c0,11-7.44,16.85-16.51,16.85-9.38,0-16-6.55-16-16.24,0-10.16,7-16.8,16.5-16.8C55.68,212,62,218.65,62,228.15Zm-27.58.52c0,6.83,4.11,13,11.34,13s11.39-6,11.39-13.29c0-6.37-3.7-13-11.34-13S34.38,221.64,34.38,228.67Z" />
      <path class="cls-1"
        d="M97.87,230.42c-.27-4.46-.58-9.82-.53-13.81h-.16c-1.21,3.75-2.69,7.74-4.48,12.15l-6.28,15.53H82.94L77.2,229.05c-1.69-4.51-3.11-8.64-4.12-12.44H73c-.11,4-.37,9.35-.69,14.15l-1,13.72H67l2.48-32H75.3L81.36,228c1.48,3.94,2.69,7.45,3.59,10.77h.16A110.88,110.88,0,0,1,88.85,228l6.33-15.48H101l2.21,32H98.76Z" />
      <path class="cls-1"
        d="M110.31,212.86a59.31,59.31,0,0,1,8.81-.62c4.53,0,7.85.95,10,2.66a8.23,8.23,0,0,1,3.11,6.69,8.9,8.9,0,0,1-2.74,6.84c-2.42,2.33-6.38,3.51-10.86,3.51a17.31,17.31,0,0,1-3.69-.28v12.82h-4.59Zm4.59,15.43a16.9,16.9,0,0,0,3.8.33c5.53,0,8.91-2.42,8.91-6.84,0-4.22-3.33-6.26-8.39-6.26a21.33,21.33,0,0,0-4.32.33Z" />
      <path class="cls-1"
        d="M139.68,234.41,136,244.48h-4.74l12.07-32h5.54l12.12,32h-4.9l-3.8-10.07Zm11.66-3.23L147.86,222c-.8-2.08-1.32-4-1.85-5.84h-.11c-.52,1.9-1.1,3.85-1.79,5.8l-3.48,9.25Z" />
      <path class="cls-1"
        d="M166.21,244.48v-32h5l11.38,16.19a86.51,86.51,0,0,1,6.38,10.4l.11,0a128.8,128.8,0,0,1-.53-13.15V212.48h4.33v32h-4.64L177,228.24a98.9,98.9,0,0,1-6.64-10.68l-.16.05c.26,4,.37,7.88.37,13.19v13.68Z" />
      <path class="cls-1"
        d="M208.44,244.48V230.9l-11.23-18.42h5.22l5,8.83c1.37,2.42,2.43,4.37,3.53,6.6h.11c1-2.09,2.21-4.18,3.59-6.6l5.11-8.83H225l-11.92,18.37v13.63Z" />
      <polygon class="cls-1" points="113.08 17.5 108.9 12.24 108.9 22.76 113.08 17.5" />
      <polygon class="cls-1" points="115.27 17.5 119.45 22.76 119.45 12.24 115.27 17.5" />
      <polygon class="cls-1"
        points="119.4 22.81 114.18 18.6 108.95 22.81 108.95 22.81 114.18 27.02 119.4 22.81 119.4 22.81" />
      <polygon class="cls-1" points="113.08 28.12 108.9 22.86 108.9 33.38 113.08 28.12" />
      <polygon class="cls-1" points="115.27 28.12 119.45 33.38 119.45 22.86 115.27 28.12" />
      <polygon class="cls-1"
        points="114.18 29.22 108.95 33.43 108.95 33.43 114.18 37.63 119.4 33.43 119.4 33.43 114.18 29.22" />
      <polygon class="cls-1" points="113.08 38.73 108.9 33.48 108.9 43.99 113.08 38.73" />
      <polygon class="cls-1" points="115.27 38.73 119.45 43.99 119.45 33.48 115.27 38.73" />
      <polygon class="cls-1"
        points="119.4 44.04 114.18 39.84 108.95 44.04 108.95 44.04 114.18 48.25 119.4 44.04 119.4 44.04" />
      <polygon class="cls-1" points="113.08 49.35 108.9 44.09 108.9 54.61 113.08 49.35" />
      <polygon class="cls-1" points="115.27 49.35 119.45 54.61 119.45 44.09 115.27 49.35" />
      <polygon class="cls-1" points="113.08 59.97 108.9 54.71 108.9 65.23 113.08 59.97" />
      <polygon class="cls-1" points="115.27 59.97 119.45 65.23 119.45 54.71 115.27 59.97" />
      <polygon class="cls-1"
        points="119.4 65.28 114.18 61.07 108.95 65.28 108.95 65.28 114.18 69.49 119.4 65.28 119.4 65.28" />
      <polygon class="cls-1" points="113.08 70.59 108.9 65.33 108.9 75.85 113.08 70.59" />
      <polygon class="cls-1" points="115.27 70.59 119.45 75.85 119.45 65.33 115.27 70.59" />
      <polygon class="cls-1"
        points="119.4 54.66 114.18 50.45 108.95 54.66 108.95 54.66 114.18 58.87 119.4 54.66 119.4 54.66" />
      <polygon class="cls-1"
        points="119.4 75.9 114.18 71.69 108.95 75.9 108.9 75.9 108.9 83.91 119.45 83.91 119.45 75.9 119.4 75.9" />
      <path class="cls-1"
        d="M126.7,4.5,121.79,0H106.54l-4.9,4.5c-.61.57,7.31,7.69,7.31,7.69l5.21,4.2h0l5.2-4.2S127.31,5.07,126.7,4.5Z" />
    </g>
  </g>
</svg>