<svg xmlns="http://www.w3.org/2000/svg" viewBox="0 0 7728 4830" fill="#456999">
<symbol id="vertical">

  <!-- Rocket -->
  <svg x="0" y ="0">
    <path d="M9.11,34.8,4.24,37.54a5,5,0,0,0-2.49,3.62L0,52.68A3.44,3.44,0,0,0,4.4,56.49l5-1.44A45.5,45.5,0,0,1,9.11,34.8Z" />
    <path d="M36.52,64.94l2.87,4.28a3.44,3.44,0,0,0,5.79-.11l6.09-9.92a5,5,0,0,0,.42-4.38l-2-5.23a45.64,45.64,0,0,1-13.2,15.36Z" />
    <path d="M33.29,62.55a4.25,4.25,0,0,0,.46-.27,36.58,36.58,0,0,0,6-5.19L11.92,47a36.7,36.7,0,0,0,1.26,7.85A3.31,3.31,0,0,0,15.23,57l15.54,5.65A3.33,3.33,0,0,0,33.29,62.55Z" />
    <path d="M52.6,26.81c.46-11.15-3.8-20.72-6.12-25.06A3.29,3.29,0,0,0,42.34.24c-.74.3-1.62.67-2.58,1.12A49.74,49.74,0,0,0,21.54,15.51,51.25,51.25,0,0,0,11.89,43l.23.07,30,10.92.21.1A51.22,51.22,0,0,0,52.6,26.81Zm-26-4.31a9.43,9.43,0,1,1,.32,7.2,9.43,9.43,0,0,1-.32-7.2Z" />
    <path d="M33.48,31a5.65,5.65,0,1,0-3.19-2.92A5.65,5.65,0,0,0,33.48,31Z" />
    <path d="M11.08,73.17a1.88,1.88,0,0,0,1-1.06l3-8.17a1.88,1.88,0,1,0-3.54-1.29l-3,8.17a1.88,1.88,0,0,0,2.56,2.35Z" />
    <path d="M21.39,64.25A1.89,1.89,0,0,0,19,65.37L13.26,81.08a1.88,1.88,0,0,0,3.54,1.29l5.71-15.71a1.87,1.87,0,0,0-1.12-2.41Z" />
    <path d="M26.46,68.1l-3,8.17a1.88,1.88,0,0,0,2.56,2.35,1.93,1.93,0,0,0,1-1.06l3-8.17a1.88,1.88,0,1,0-3.54-1.29Z" />
  </svg>
  
  <!-- Paperplane -->
  <svg x="0" y="322">
    <path d="M45.67.51l-.08,0L.54,46.49A1.88,1.88,0,0,0,1.6,49.67l15.69,2.4L30.2,68.33l.12.1a1.87,1.87,0,0,0,3.13-.63L38,55.24l17.26,2.64a1.89,1.89,0,0,0,2.15-2.16L48.8,1.58A1.87,1.87,0,0,0,45.67.51ZM27.33,51.32a1.89,1.89,0,0,0-.06,1.1v0l1.33,7.81-8-10.07,18-30.45Z" />
    <path d="M22.87,68a1.89,1.89,0,0,0-2.41,1.13L15.91,81.63a1.88,1.88,0,0,0,3.54,1.29L24,70.41A1.9,1.9,0,0,0,22.87,68Z" />
    <path d="M18.1,57.75a1.88,1.88,0,0,0-2.41,1.13L11.13,71.39a1.88,1.88,0,0,0,3.54,1.29l4.55-12.51A1.88,1.88,0,0,0,18.1,57.75Z" />
  </svg>

  <!-- Cube -->
  <svg x="0" y ="644">
    <path d="M12,54a4.8,4.8,0,0,0,8.38.6l18.79,1.65.06.13a4.8,4.8,0,0,0,8.71-4.06c0-.05,0-.09-.07-.14L58.69,36.73a4.75,4.75,0,0,0,2.6-.42,4.81,4.81,0,0,0-1.77-9.15l-8-17.09a4.83,4.83,0,0,0,.5-4.91h0a4.8,4.8,0,0,0-8.38-.59L24.9,2.91a.84.84,0,0,1-.06-.14,4.81,4.81,0,1,0-8.71,4.07l.06.13L5.37,22.42a4.74,4.74,0,0,0-2.6.41A4.82,4.82,0,0,0,.45,29.22h0A4.83,4.83,0,0,0,4.53,32l8,17.1A4.83,4.83,0,0,0,12,54ZM47.14,12l.29,0,8,17.1a4.81,4.81,0,0,0-.5,4.9l.06.13L44.14,49.57l-.28,0-8-17.09a4.83,4.83,0,0,0,.51-4.91l-.07-.13ZM19.88,9.63a4.76,4.76,0,0,0,2.66-.4,4.83,4.83,0,0,0,2-1.78L43.29,9.09l.06.13h0l.06.13L32.59,24.8A4.82,4.82,0,0,0,28,26.94L9.22,25.29s0-.08-.05-.13h0L9.1,25ZM8.66,30.07l.17-.24,18.79,1.65.06.12a4.8,4.8,0,0,0,4.08,2.77l8,17.1a2.49,2.49,0,0,0-.17.24L20.77,50.06l-.06-.13a4.8,4.8,0,0,0-4.08-2.77Z" />
  </svg>

  <!-- Paw -->
  <svg x="0" y="966">
    <path d="M47.12,27.18c-6.13-2.9-12.3-3.2-17.37-.83s-8.82,7.28-10.53,13.84c-1.54,5.89-1.14,12.23,1.06,17a7.06,7.06,0,0,0,4.51,4.22,8.65,8.65,0,0,0,5.89-.89,44,44,0,0,0,6.45-4.06,37.11,37.11,0,0,1,5.11-3.27,34.36,34.36,0,0,1,5.33-1.64c4.86-1.26,10.37-2.68,12.16-6.48a7,7,0,0,0-.3-6.13C57.22,34.17,52.62,29.79,47.12,27.18Z" />
    <path d="M35.54,1.3A7.67,7.67,0,0,0,28.35.6a7.66,7.66,0,0,0-4.08,6,14.18,14.18,0,0,0,1.31,8.13A14.16,14.16,0,0,0,31,20.92a7.65,7.65,0,0,0,7.18.7,7.64,7.64,0,0,0,4.08-6,14.26,14.26,0,0,0-1.3-8.13A14.29,14.29,0,0,0,35.54,1.3Z" />
    <path d="M18.1,9.43a7.62,7.62,0,0,0-7.18-.7,7.64,7.64,0,0,0-4.08,5.95,14.28,14.28,0,0,0,1.3,8.14,14.24,14.24,0,0,0,5.4,6.23,7.65,7.65,0,0,0,7.18.7,7.67,7.67,0,0,0,4.08-6,14.26,14.26,0,0,0-1.3-8.13A14.24,14.24,0,0,0,18.1,9.43Z" />
    <path d="M57.66,11.06A6.47,6.47,0,0,0,52.3,8.67a6.06,6.06,0,0,0-4.17,2.23,9.71,9.71,0,0,0-2,7.2A10.48,10.48,0,0,0,48.62,24,6.49,6.49,0,0,0,54,26.36a5.59,5.59,0,0,0,2-.52,6.41,6.41,0,0,0,2.2-1.71,9.71,9.71,0,0,0,2-7.2h0A10.56,10.56,0,0,0,57.66,11.06Z" />
    <path d="M12.86,33.63A9.68,9.68,0,0,0,6.1,30.51a6,6,0,0,0-4.39,1.75A6.46,6.46,0,0,0,.1,37.91,10.45,10.45,0,0,0,3,43.56H3a9.7,9.7,0,0,0,6.77,3.12,6.48,6.48,0,0,0,2.73-.58,5.69,5.69,0,0,0,1.65-1.17,6.47,6.47,0,0,0,1.62-5.65A10.53,10.53,0,0,0,12.86,33.63Z" />
  </svg>

  <!-- Power -->
  <svg x="0" y="1288">
    <path d="M8.87,39.63a21.65,21.65,0,0,1,3.81-23.9l.23-9.08A28.47,28.47,0,0,0,33.1,58.58L30.87,52A21.65,21.65,0,0,1,8.87,39.63Z" />
    <path d="M54.26,18.46A28.53,28.53,0,0,0,23.84,2.4L26,9A21.62,21.62,0,0,1,44.35,45.14L44,54.32A28.5,28.5,0,0,0,54.26,18.46Z" />
    <path d="M41.77,20.48A1.58,1.58,0,0,0,39.4,19L27.6,24.52,19.84,1.24A1.79,1.79,0,0,0,17.93,0a1.56,1.56,0,0,0-.48.14,1.73,1.73,0,0,0-1,1.51l-1,39.51a1.87,1.87,0,0,0,.81,1.55,1.84,1.84,0,0,0,1.71.21l11.64-5.43,7.53,22.37A1.62,1.62,0,0,0,39,61a1.84,1.84,0,0,0,.47-.15,1.74,1.74,0,0,0,1-1.5Z" />
  </svg>

  <!-- Code -->
  <svg x="0" y="1610">
    <path d="M8.15,35.94l4-10.88A3.57,3.57,0,0,0,5.4,22.62L.22,36.85a3.57,3.57,0,0,0,2.13,4.58l14.23,5.18a3.53,3.53,0,0,0,2.73-.12A3.57,3.57,0,0,0,19,39.9Z" />
    <path d="M56.56,10.58,42.33,5.4a3.57,3.57,0,1,0-2.44,6.71l10.88,4-4,10.87a3.57,3.57,0,0,0,2.13,4.58,3.58,3.58,0,0,0,4.58-2.13L58.7,15.15A3.56,3.56,0,0,0,56.56,10.58Z" />
    <path d="M26.47,0a3.58,3.58,0,0,0-3.14,4l5.16,44.86a3.58,3.58,0,0,0,4,3.14,3.4,3.4,0,0,0,1.1-.31,3.58,3.58,0,0,0,2-3.64L30.42,3.16A3.57,3.57,0,0,0,26.47,0Z" />
  </svg>

  <!-- Dog -->
  <svg x="0" y="1932">
    <path d="M39,6.13l-7.07.37a5.57,5.57,0,0,0-5.53-2.21L24.33.74a1.47,1.47,0,0,0-2.68.3l-.76,2.44L18.38.58a1.47,1.47,0,0,0-2.58,1.1l2.36,26.56A26.31,26.31,0,0,0,8.77,45.39a21.89,21.89,0,0,0,4.56,16.43,13.36,13.36,0,0,0,6.5,4.56l-1.13.53h0A15.09,15.09,0,0,1,2.41,65.06,1.47,1.47,0,1,0,.54,67.34a18,18,0,0,0,19.05,2.41L45.07,57.87a1.47,1.47,0,0,0,.71-2c-1.67-3.59-5.3-3.89-8.11-3.32a11.14,11.14,0,0,0-1.49-6.19l.33-.21,13.72,8.53a1.45,1.45,0,0,0,1.4.09l4.86-2.27A1.47,1.47,0,0,0,56.66,50c-.09-.06-8.82-5.68-13.59-8.88L32.61,18.66a11.6,11.6,0,0,0,7.92-11V7.52A1.48,1.48,0,0,0,39,6.13Z" />
  </svg>

  <!-- Console -->
  <svg x="0" y="2283">
    <path d="M30.34,6.69,6.43.18A5.09,5.09,0,1,0,3.76,10l18.09,4.93L14,32a5.09,5.09,0,1,0,9.25,4.27l10.37-22.5A5.1,5.1,0,0,0,30.34,6.69Z" />
    <path d="M65.48,6.63,44.72,16.32A5.09,5.09,0,1,0,49,25.55l20.77-9.68a5.1,5.1,0,0,0-4.31-9.24Z" />
  </svg>

  <!-- Robot -->
  <svg x="0" y="2576">
    <path d="M39.8,13.34a1.88,1.88,0,0,0,2.5.91l3.42-1.59a1.88,1.88,0,0,0-1.59-3.41l-3.42,1.59A1.88,1.88,0,0,0,39.8,13.34Z" />
    <path d="M4.76,31.76l3.42-1.59a1.89,1.89,0,0,0-1.6-3.42l-3.41,1.6a1.88,1.88,0,0,0,1.59,3.41Z" />
    <path d="M36.73,6.05,38.89,3A1.88,1.88,0,1,0,35.81.8L33.65,3.89a1.88,1.88,0,0,0,3.08,2.16Z" />
    <path d="M12.16,35,10,38a1.88,1.88,0,1,0,3.08,2.16l2.16-3.08A1.88,1.88,0,1,0,12.16,35Z" />
    <path d="M43.09,24.13l3.75.33a1.88,1.88,0,1,0,.33-3.75l-3.75-.33a1.88,1.88,0,0,0-.33,3.75Z" />
    <path d="M1.72,20.3l3.75.32a1.88,1.88,0,0,0,.33-3.75l-3.75-.33a1.89,1.89,0,0,0-.33,3.76Z" />
    <path d="M62.12,34.56a9.54,9.54,0,0,0-11.81-3.13L46.86,33a9.41,9.41,0,0,0-8.38-.25L24.83,39.16a9.39,9.39,0,0,0-5.19,6.57l-3.45,1.61A9.55,9.55,0,0,0,11,58.4a5.63,5.63,0,0,0,6.21,9.24,1.88,1.88,0,1,0-1.59-3.41,1.88,1.88,0,1,1,.91-2.5,1.89,1.89,0,0,0,3.42-1.59,5.67,5.67,0,0,0-5.43-3.25,5.78,5.78,0,0,1,3.27-6.13l1.88-.88a9.51,9.51,0,0,0,.62,1.79l4,8.53L55,45.88l-4-8.54a9.34,9.34,0,0,0-1-1.62l1.88-.88a5.79,5.79,0,0,1,6.8,1.44,5.66,5.66,0,0,0-1,6.25,1.89,1.89,0,1,0,3.42-1.6,1.88,1.88,0,1,1,2.5.92,1.88,1.88,0,1,0,1.59,3.41,5.63,5.63,0,0,0-3.09-10.7Zm-30.81,14a1.88,1.88,0,0,1-3.41,1.59l-1.59-3.41a1.88,1.88,0,1,1,3.41-1.59Zm6.83-3.18A1.88,1.88,0,1,1,34.73,47l-1.6-3.41A1.89,1.89,0,0,1,36.55,42ZM45,42.23a1.88,1.88,0,1,1-3.41,1.6L40,40.41a1.88,1.88,0,0,1,3.41-1.59Z" />
    <path d="M23.87,35.45l12.39-5.78c0-3.1,1-5.52,1.26-7a13.42,13.42,0,0,0-1.13-7.79A13.18,13.18,0,1,0,12.51,26.11a13.39,13.39,0,0,0,5.23,5.83C19,32.69,21.47,33.43,23.87,35.45ZM20.24,20.39a1.88,1.88,0,0,1,2.5.91,1.88,1.88,0,1,0,3.41-1.59,1.88,1.88,0,0,1,3.41-1.59,5.64,5.64,0,1,1-10.23,4.77A1.87,1.87,0,0,1,20.24,20.39Z" />
    <path d="M62.36,52.82a5.64,5.64,0,0,0-7.5-2.73L27.56,62.82a5.64,5.64,0,1,0,4.77,10.23l27.3-12.73a5.64,5.64,0,0,0,2.73-7.5ZM39.59,65.52,35.54,67.4A5.28,5.28,0,0,0,34,64l4-1.89A5.4,5.4,0,0,0,38.48,64,5.46,5.46,0,0,0,39.59,65.52Zm13.65-6.37L49.19,61a5.39,5.39,0,0,0-.48-1.86,5.66,5.66,0,0,0-1.11-1.56l4-1.88a5.65,5.65,0,0,0,.49,1.85A5.46,5.46,0,0,0,53.24,59.15Z" />
  </svg>

   <!-- Gamepad -->
  <svg x="0" y="2918">
    <path d="M18,25.8l-1,.47a1.51,1.51,0,0,1-2-.74l-.48-1a2,2,0,0,0-.83-.85l-.11,0a1.74,1.74,0,0,0-2.18,1,1.62,1.62,0,0,0,.08,1.29l.47,1a1.53,1.53,0,0,1-.74,2l-1,.47a1.87,1.87,0,0,0-.85.84l0,.1a1.65,1.65,0,0,0,1,2.11,1.62,1.62,0,0,0,1.29-.08l1-.47a1.52,1.52,0,0,1,2,.74l.47,1a1.66,1.66,0,0,0,1,.89,1.62,1.62,0,0,0,1.29-.08,1.6,1.6,0,0,0,.88-.94,1.62,1.62,0,0,0-.07-1.29l-.44-.94a1.51,1.51,0,0,1,.74-2l1-.48a1.61,1.61,0,0,0,.89-.94,1.74,1.74,0,0,0-1-2.18A1.62,1.62,0,0,0,18,25.8Z" />
    <path d="M62.38,20.55a60.36,60.36,0,0,0-6.51-9.77,44.24,44.24,0,0,0-7.39-7.33C39.24-3.1,34.37.85,28.58,5.66a51.34,51.34,0,0,1-6.06,4.42l-.73.34a52.28,52.28,0,0,1-7.28,1.81C7.13,13.64.94,14.76.06,26.12A40.64,40.64,0,0,0,.92,36.49,60,60,0,0,0,4.23,47.76C5.81,51.53,7.42,54,9.1,55.55a6.09,6.09,0,0,0,5,1.65,7.8,7.8,0,0,0,4.41-2.68c2.29-2.48,4.4-6.47,6.21-10.93,1.23-3.22,4.93-6.27,9.14-8.24s8.92-2.83,12.19-1.71c4.58,1.49,9,2.44,12.36,2.28a8.46,8.46,0,0,0,4.88-1.66,6,6,0,0,0,1.93-5C65.17,27.11,64.28,24.26,62.38,20.55ZM22.79,29a4.33,4.33,0,0,1-2,2.46,4.88,4.88,0,0,1,0,3.18,4.72,4.72,0,0,1-2.4,2.62,4.57,4.57,0,0,1-3.55.16,4.28,4.28,0,0,1-2.45-2,4.48,4.48,0,0,1-3.26,0A4.72,4.72,0,0,1,6.46,33a4.57,4.57,0,0,1-.16-3.55l0-.11A4.8,4.8,0,0,1,8.41,27a4.63,4.63,0,0,1,0-3.18,4.68,4.68,0,0,1,2.4-2.62A4.57,4.57,0,0,1,14.38,21l.1,0a4.59,4.59,0,0,1,2.35,2,4.82,4.82,0,0,1,3.18,0,4.66,4.66,0,0,1,2.62,2.39A4.53,4.53,0,0,1,22.79,29Zm13.94-7a2.8,2.8,0,1,1,1.36-3.72A2.79,2.79,0,0,1,36.73,22Zm7.55,2.75A2.8,2.8,0,1,1,45.64,21,2.79,2.79,0,0,1,44.28,24.75Zm-4.8-10.3a2.8,2.8,0,1,1,1.36-3.72A2.8,2.8,0,0,1,39.48,14.45ZM47,17.2a2.8,2.8,0,1,1,1.36-3.72A2.8,2.8,0,0,1,47,17.2Z" />
  </svg>

  <!-- Humanoid -->
  <svg x="0" y="3220">
    <path d="M17,30.82a10.7,10.7,0,0,0,6.75-.88,10.7,10.7,0,0,0,5-4.61,5.66,5.66,0,0,0,.33-5,5.63,5.63,0,0,0-4.07-3,10.67,10.67,0,0,0-6.74.88,10.64,10.64,0,0,0-5,4.6,5.65,5.65,0,0,0-.34,5,5.68,5.68,0,0,0,4.07,3Zm1.51-7.66L22,21.57,23.55,25l-3.41,1.6Z" />
    <path d="M1,18A23.57,23.57,0,0,1,12.77,6.31,23.61,23.61,0,0,1,29.28,4.85a19.64,19.64,0,0,1,2.48.88A18.41,18.41,0,0,0,.12,20.49,21.67,21.67,0,0,1,1,18Z" />
    <path d="M41.94,27.8a21.23,21.23,0,0,1-.87,2.33A23.59,23.59,0,0,1,29.34,41.84,23.64,23.64,0,0,1,12.82,43.3a19.61,19.61,0,0,1-2.34-.83A18.41,18.41,0,0,0,41.94,27.8Z" />
    <path d="M27.74,38.43c9.2-4.29,13.69-14.22,10-22.14S23.56,5.43,14.36,9.72.68,23.94,4.37,31.85,18.55,42.72,27.74,38.43ZM10,21.09a14.37,14.37,0,0,1,6.77-6.29,14.33,14.33,0,0,1,9.16-1.14,9.34,9.34,0,0,1,6.66,5.05,9.33,9.33,0,0,1-.41,8.35,14.4,14.4,0,0,1-6.76,6.29,14.42,14.42,0,0,1-9.17,1.14,9.31,9.31,0,0,1-6.65-5.06A9.31,9.31,0,0,1,10,21.09Z" />
    <path d="M48.39,33.93,45,35.5c-.15.56-.77,2.3-.9,2.61A15.07,15.07,0,0,1,17,50.74c-.33-.11-2.06-.75-2.58-1,0,0-3.26,1.52-3.4,1.6A20.67,20.67,0,0,0,48.39,33.93Z" />
    <path d="M24.43,51.73c-.47,0-.94,0-1.4,0A11.28,11.28,0,0,0,41,43.37c-.28.36-.58.72-.9,1.07a22.15,22.15,0,0,1-15.64,7.29Z" />
    <path d="M52.07,33a24.49,24.49,0,0,1-2.46,21.43l8-3.73a29.89,29.89,0,0,0,.71-16.5A12.1,12.1,0,0,0,52.07,33Z" />
    <path d="M8,53.59a12.05,12.05,0,0,0-3.1,5.57A29.87,29.87,0,0,0,18,69.22l8-3.74a24,24,0,0,1-4.54-1A24.39,24.39,0,0,1,8,53.59Z" />
    <path d="M62.77,38a33.44,33.44,0,0,1-.67,10.64l4.82-2.25-3-6.47A11.81,11.81,0,0,0,62.77,38Z" />
    <path d="M5.65,67.08l3,6.47,4.81-2.24A33.83,33.83,0,0,1,4.9,65,11.89,11.89,0,0,0,5.65,67.08Z" />
  </svg>

  <!-- Laptop -->
  <svg x="0" y ="3542">
    <path d="M60.76,29.42l-1-2.16-6-12.94-6-12.95A2.39,2.39,0,0,0,44.52.22L1.38,20.34A2.38,2.38,0,0,0,.22,23.5l6,13,6,12.94,1,2.16-2.38,9a3.59,3.59,0,0,0,4.75,1.73L67.44,38.11a3.57,3.57,0,0,0,1.73-4.74ZM45.37,47.1l-8.63,4a.6.6,0,0,1-.5-1.08l8.63-4a.59.59,0,0,1,.79.28A.61.61,0,0,1,45.37,47.1Zm-14.21,4,.72-2.74L46.37,41.6l2.57,1.21ZM55.94,27a2.08,2.08,0,0,1-1,2.76L17.32,47.32a2.08,2.08,0,0,1-2.76-1L4,23.75A2.07,2.07,0,0,1,5,21L42.66,3.44a2.09,2.09,0,0,1,2.76,1Z" />
  </svg>

  <!-- Coffee -->
  <svg x="0" y="3864">
    <path d="M31.36,12.77a5.48,5.48,0,0,1-3.77-8.09c.43-1,.6-1.49.26-2.21A1.74,1.74,0,1,1,31,1a5.69,5.69,0,0,1-.2,5c-.43,1-.6,1.49-.26,2.22s.79.88,1.87,1.23a5.48,5.48,0,0,1,3.77,8.09c-.43,1-.6,1.49-.26,2.22a1.74,1.74,0,0,1-3.15,1.46,5.69,5.69,0,0,1,.2-5c.43-1,.6-1.5.26-2.23s-.79-.88-1.87-1.22Z" />
    <path d="M21.93,17.17a5.48,5.48,0,0,1-3.77-8.09c.43-1,.59-1.49.26-2.21A1.73,1.73,0,1,1,21.56,5.4a5.66,5.66,0,0,1-.2,5c-.42,1-.6,1.49-.26,2.22s.8.88,1.87,1.23A5.49,5.49,0,0,1,26.75,22c-.43,1-.6,1.49-.27,2.22a1.73,1.73,0,1,1-3.14,1.46,5.66,5.66,0,0,1,.2-5c.43-1.05.59-1.5.25-2.23s-.78-.88-1.86-1.22Z" />
    <path d="M13.54,18.26a5.48,5.48,0,0,1,3.77,8.08c-.43,1.05-.6,1.5-.26,2.22A1.74,1.74,0,1,1,13.9,30a5.69,5.69,0,0,1,.2-5c.43-1.05.6-1.5.26-2.23s-.8-.88-1.87-1.23a5.47,5.47,0,0,1-3.77-8.08c.43-1.05.59-1.5.26-2.22a1.73,1.73,0,1,1,3.14-1.47,5.66,5.66,0,0,1-.2,5c-.42,1-.59,1.5-.25,2.23S12.46,17.91,13.54,18.26Z" />
    <path d="M58.38,11.83a10,10,0,0,0-7.92,2.05c-.36-.83-.71-1.59-1.05-2.26l0,0,0-.05c-.89-1.9-3.15-4.24-8.88-4.54a1.76,1.76,0,0,0-1.57.78,1.74,1.74,0,0,0,1.39,2.69c3.13.16,5.23,1.07,5.91,2.54,1.74,3.72-5,11.93-17.56,17.76A44.38,44.38,0,0,1,10.7,35.46h-.23c-3.49-.06-5.9-1-6.69-2.53l0-.07a.05.05,0,0,0,0,0c-.86-1.93.58-5.09,3.88-8.48a1.73,1.73,0,1,0-2.48-2.42C.62,26.53-1,30.94.59,34.32l.07.11C3,39.85,8.41,49.37,17.84,52.93c6.15,2.32,13,1.75,20.35-1.68s12.2-8.32,14.37-14.52a21.6,21.6,0,0,0,1-3.9,11.13,11.13,0,0,1,1.95-1.93c.31-.25.65-.51,1-.77,3.29-2.49,8.78-6.66,6.77-13.09A7,7,0,0,0,58.38,11.83ZM49.29,35.59c-1.86,5.28-6.09,9.49-12.56,12.52S24.3,51.66,19.07,49.68A26.17,26.17,0,0,1,6.7,38.49h0C12.36,39.74,21,38.23,30.1,34S46,24,48.65,18.87A26.3,26.3,0,0,1,49.29,35.59ZM59.94,18.07c1.19,3.81-1.68,6.36-5.56,9.29l-.54.42a36.46,36.46,0,0,0-2.08-10.54h0a7.29,7.29,0,0,1,5.75-2A3.77,3.77,0,0,1,59.94,18.07Z" />
  </svg>

  <!-- Smartphone -->
  <svg x="0" y="4186">
    <path d="M23.64.63,4,9.81a6.82,6.82,0,0,0-3.35,9l21.5,46.11a6.75,6.75,0,0,0,9,3.21l19.7-9.21A6.71,6.71,0,0,0,54,50L32.55,3.86A6.71,6.71,0,0,0,23.64.63Zm-11,9.56,5.7-2.67A1,1,0,0,1,19.7,8a1,1,0,0,1-.49,1.33L13.5,12a1,1,0,0,1-1.33-.49A1,1,0,0,1,12.66,10.19Zm-3.3,1.89a1,1,0,0,1,1.29-.61,1,1,0,0,1,.6,1.29,1,1,0,0,1-.52.57,1,1,0,0,1-.77,0,1,1,0,0,1-.56-.52A1,1,0,0,1,9.36,12.08ZM40,61.74a3,3,0,1,1,1.45-4A3,3,0,0,1,40,61.74Zm9.86-13.48L23.88,60.35,5,19.85,30.93,7.76l18.88,40.5Z" />
  </svg>

  <!-- Cat -->
  <svg x="0" y="4508">
    <path d="M12.21,70.2c-1.05-2.27.51-6.35,3.83-7.9s7.45-.12,8.51,2.14c.68,1.46-.31,3-1.92,4.19a2.66,2.66,0,0,0-.23-.74l-.94-2A1.11,1.11,0,0,0,20,65.35a1.13,1.13,0,0,0-.56,1.49l.93,2a1.13,1.13,0,0,1-2.05,1l-.94-2a1.13,1.13,0,0,0-1.5-.53,1.14,1.14,0,0,0-.56,1.49l.94,2a3,3,0,0,0,.42.65C14.67,71.85,12.89,71.66,12.21,70.2Z" />
    <path d="M61.57,47.18c.68,1.46-.31,3-1.92,4.19a3,3,0,0,0-.23-.74l-.94-2a1.13,1.13,0,0,0-1.5-.53,1.14,1.14,0,0,0-.56,1.49l.94,2a1.12,1.12,0,0,1-.56,1.48,1.13,1.13,0,0,1-1.5-.52l-.93-2a1.14,1.14,0,0,0-2.06,1l.94,2a2.84,2.84,0,0,0,.42.66c-2,.43-3.76.24-4.44-1.23-1.06-2.26.5-6.35,3.82-7.89S60.51,44.92,61.57,47.18Z" />
    <path d="M14.79,17.8a11.56,11.56,0,0,0-1.51-2.33,9.86,9.86,0,0,1-.74-11.1C13.6,2.67,16.87-1.1,24.4.31a3.28,3.28,0,0,1,1.86,5.46A3.46,3.46,0,0,1,23,6.87c-1.12-.21-3.83-.54-4.72.9a3.33,3.33,0,0,0,.3,3.49A20.28,20.28,0,0,1,21,15.08l1,2c4.86-1.33,9.77-1,13.46.93-1,1.41-2.11,3.06-3.25,5A27,27,0,0,0,12.6,32.16c-2.23-.36-4.2-.6-5.94-.71,1-4.42,4.31-8.72,9-11.62Z" />
    <path d="M32.81,45.92l-3.08,1.43c-.35.17-.43.41-.42.46l2.34.89a.91.91,0,0,0,1-.45l.79-2.32C33.39,45.85,33.16,45.75,32.81,45.92Z" />
    <path d="M59.61,36.07a12,12,0,0,0-3.17.06h0l-2.31.47h0a16.77,16.77,0,0,0-2.57-3.68h0l1.88-1.29a26.54,26.54,0,0,1,2.72-1.48,1.11,1.11,0,0,0,.56-1.48,1.13,1.13,0,0,0-1.5-.53C54,28.68,51.82,30,51.82,30L49.9,31.36a23.33,23.33,0,0,0-2.71-2,1.05,1.05,0,0,1-.5-.79C45.94,22,43.91,15.91,42.15,15a.57.57,0,0,0-.59,0c-1.8.84-4.62,4.39-7.73,9.74a1.14,1.14,0,0,1-1,.57,24.72,24.72,0,0,0-19,8.83,1.17,1.17,0,0,1-1.08.39,56.57,56.57,0,0,0-7.47-.86H5.18a11.1,11.1,0,0,0-4.78.54A.6.6,0,0,0,0,34.6C-.37,36.55,3,42,7.49,46.77a1,1,0,0,1,.29.89,21.92,21.92,0,0,0-.19,3.43l-2.27.6s-2.45.85-3.62,1.4a1.11,1.11,0,1,0,.93,2A25.34,25.34,0,0,1,5.51,54l2.2-.61h0A16.61,16.61,0,0,0,8.9,57.67l0,0L7,59.16H7A11.32,11.32,0,0,0,5,61.56a1.1,1.1,0,0,0,.92,1.69,1.17,1.17,0,0,0,1-.55,8.37,8.37,0,0,1,1.29-1.55l1.77-1.48a11.88,11.88,0,0,0,2.31,2.69,9.39,9.39,0,0,1,2.86-2.07c4.63-2.16,10-.06,11.51,3.19A4.5,4.5,0,0,1,27,65.32,43.7,43.7,0,0,0,38.29,61.7a43.75,43.75,0,0,0,10-6.3,4.41,4.41,0,0,1-1.13-1.51c-1.52-3.25.31-8.7,4.95-10.86a9.22,9.22,0,0,1,3.42-.86,11.87,11.87,0,0,0-.57-3.5l2.26-.4a8.53,8.53,0,0,1,2,0,1.13,1.13,0,0,0,1.06-.41,1.1,1.1,0,0,0-.7-1.79ZM20,45c-1.3-.06-2.72.71-4.22,2.26a1.14,1.14,0,0,1-1.6.05,1.09,1.09,0,0,1,0-1.57c2-2.07,4-3.06,6-3a5.67,5.67,0,0,1,4,2,1.11,1.11,0,0,1-.24,1.54,1.14,1.14,0,0,1-1.57-.18A3.44,3.44,0,0,0,20,45Zm21.78,5.31a4.41,4.41,0,0,1-.9,5,4.58,4.58,0,0,1-5.07,1,4.6,4.6,0,0,1-4,3.26A4.41,4.41,0,0,1,27.35,57l-.47-1a1.14,1.14,0,0,1,2.06-1l.46,1a2.27,2.27,0,0,0,4.12-1.91L32,50.94a2.91,2.91,0,0,1-1.24-.16l-2.29-.89a2.18,2.18,0,0,1-1.44-2,2.83,2.83,0,0,1,1.74-2.54l3.08-1.43a2.83,2.83,0,0,1,3.07.3,2.19,2.19,0,0,1,.6,2.39l-.79,2.33a2.78,2.78,0,0,1-.67,1l1.49,3.21a2.27,2.27,0,0,0,4.12-1.92l-.47-1a1.11,1.11,0,0,1,.56-1.48,1.13,1.13,0,0,1,1.5.53Zm0-15.88a1.14,1.14,0,0,1-1.06,1.19c-2.17.16-3.67.76-4.46,1.8a3.39,3.39,0,0,0-.6,2.54,1.13,1.13,0,0,1-.15.84,1.17,1.17,0,0,1-.71.5,1.14,1.14,0,0,1-.85-.13,1.09,1.09,0,0,1-.5-.69,5.69,5.69,0,0,1,1-4.38c1.21-1.58,3.27-2.49,6.13-2.7A1.09,1.09,0,0,1,41.76,34.43Z" />
  </svg>
</symbol>

  <use href="#vertical" x="0" y="0"/>
  <use href="#vertical" x="64" y="-1480"/>
  <use href="#vertical" x="128" y="-2960"/>
  <use href="#vertical" x="128" y="1870"/>
  <use href="#vertical" x="192" y="-4436"/>
  <use href="#vertical" x="192" y="394"/>
  <use href="#vertical" x="256" y="-1088"/>
  <use href="#vertical" x="320" y="-2576"/>
  <use href="#vertical" x="320" y="2254"/>
  <use href="#vertical" x="384" y="-4047"/>
  <use href="#vertical" x="384" y="783"/>
  <use href="#vertical" x="448" y="-695"/>
  <use href="#vertical" x="512" y="-2178"/>
  <use href="#vertical" x="576" y="-3655"/>
  <use href="#vertical" x="576" y="1175"/>
  <use href="#vertical" x="640" y="-295"/>
  <use href="#vertical" x="704" y="-1782"/>
  <use href="#vertical" x="768" y="-3262"/>
  <use href="#vertical" x="768" y="1568"/>
  <use href="#vertical" x="832" y="88"/>
  <use href="#vertical" x="896" y="-1392"/>
  <use href="#vertical" x="960" y="-2880"/>
  <use href="#vertical" x="1024" y="-4348"/>
  <use href="#vertical" x="1024" y="480"/>
  <use href="#vertical" x="1088" y="-1000"/>
  <use href="#vertical" x="1152" y="-2481"/>
  <use href="#vertical" x="1216" y="-3959"/>
  <use href="#vertical" x="1216" y="871"/>
  <use href="#vertical" x="1280" y="-609"/>
  <use href="#vertical" x="1344" y="-2092"/>
  <use href="#vertical" x="1408" y="-3567"/>
  <use href="#vertical" x="1408" y="1263"/>
  <use href="#vertical" x="1472" y="-217"/>
  <use href="#vertical" x="1536" y="-1694"/>
  <use href="#vertical" x="1600" y="-3175"/>
  <use href="#vertical" x="1600" y="1652"/>
  <use href="#vertical" x="1664" y="175"/>

</svg>


