<svg xmlns="http://www.w3.org/2000/svg" viewBox="0 0 31.5 31.5">
  <defs>
    <style>
      .cls-1 {
        fill: #3e5f8a;
        fill-rule: evenodd;
      }

      .cls-2 {
        fill: #fff;
      }
    </style>
  </defs>
  <g>
    <path class="cls-1"
      d="M26.4,29.79a16.28,16.28,0,0,0,5.1-11.88A16.08,16.08,0,0,0,19.89,2.35c.27-.31.43-.56.39-.64C20.09,1.52,18.45,0,18.45,0H12.9L11.16,1.71c-.07.08.09.34.37.67A16.07,16.07,0,0,0,0,17.91,16.22,16.22,0,0,0,5.11,29.79c-1.68.31-2.93.6-2.86.87.2,1,26.83,1,27,0C29.35,30.39,28.09,30.09,26.4,29.79Z" />
    <path class="cls-2"
      d="M19.22,31.39c-.15-1.5.06-8.66.06-8.66s-2.18-.84-1.93-2.05c3.08-.48,7.32,3.26,7.83,3.26a4.88,4.88,0,0,0,2.31-2.17c-5-2.57-11.74-2.42-11.74-2.42S9,19.2,4,21.77a4.88,4.88,0,0,0,2.31,2.17c.51,0,4.75-3.74,7.83-3.26.25,1.21-1.93,2.05-1.93,2.05s.21,7.09.06,8.64A51.85,51.85,0,0,0,19.22,31.39Z" />
    <path class="cls-2"
      d="M18.39,2.11l-1-1H14.17l-1,1c-.12.12,1.46,1.58,1.52,1.64V19.13h2.21V3.74C17,3.67,18.51,2.22,18.39,2.11Z" />
  </g>
</svg>